# Blender v2.79 (sub 0) OBJ File: 'scene.blend'
# www.blender.org
mtllib table.mtl
o Cube_Cube.001
v 1.676326 1.390125 -1.000000
v 1.676326 1.456746 -1.000000
v 2.264111 1.390125 -0.809017
v 2.264111 1.456746 -0.809017
v 2.627382 1.390125 -0.309017
v 2.627382 1.456746 -0.309017
v 2.627382 1.390125 0.309017
v 2.627382 1.456746 0.309017
v 2.264111 1.390125 0.809017
v 2.264111 1.456746 0.809017
v 1.676326 1.390125 1.000000
v 1.676326 1.456746 1.000000
v 1.088540 1.390125 0.809017
v 1.088540 1.456746 0.809017
v 0.725269 1.390125 0.309017
v 0.725269 1.456746 0.309017
v 0.725269 1.390125 -0.309017
v 0.725269 1.456746 -0.309017
v 1.088541 1.390125 -0.809017
v 1.088541 1.456746 -0.809017
vt 0.368699 0.037312
vt 0.631301 0.037312
vt 0.631301 0.962688
vt 0.368699 0.962688
vt 0.368699 0.037312
vt 0.631301 0.037312
vt 0.631301 0.962688
vt 0.368699 0.962688
vt 0.368699 0.037312
vt 0.631301 0.037312
vt 0.631301 0.962688
vt 0.368699 0.962688
vt 0.368699 0.037312
vt 0.631301 0.037312
vt 0.631301 0.962688
vt 0.368699 0.962688
vt 0.368699 0.037312
vt 0.631301 0.037312
vt 0.631301 0.962688
vt 0.368699 0.962688
vt 0.368699 0.037312
vt 0.631301 0.037312
vt 0.631301 0.962688
vt 0.368699 0.962688
vt 0.368699 0.037312
vt 0.631301 0.037312
vt 0.631301 0.962688
vt 0.368699 0.962688
vt 0.368699 0.037312
vt 0.631301 0.037312
vt 0.631301 0.962688
vt 0.368699 0.962688
vt 0.500000 0.962688
vt 0.771961 0.874322
vt 0.940042 0.642978
vt 0.940042 0.357021
vt 0.771961 0.125678
vt 0.500000 0.037312
vt 0.228039 0.125678
vt 0.059958 0.357021
vt 0.059958 0.642978
vt 0.228039 0.874323
vt 0.037312 0.037312
vt 0.962688 0.037312
vt 0.962688 0.962688
vt 0.037312 0.962688
vt 0.037312 0.037312
vt 0.962688 0.037312
vt 0.962688 0.962688
vt 0.037312 0.962688
vt 0.500000 0.962688
vt 0.771961 0.874322
vt 0.940042 0.642978
vt 0.940042 0.357021
vt 0.771961 0.125678
vt 0.500000 0.037312
vt 0.228039 0.125678
vt 0.059958 0.357021
vt 0.059958 0.642978
vt 0.228039 0.874323
vn 0.3090 0.0000 -0.9511
vn 0.8090 0.0000 -0.5878
vn 1.0000 0.0000 0.0000
vn 0.8090 0.0000 0.5878
vn 0.3090 0.0000 0.9511
vn -0.3090 0.0000 0.9511
vn -0.8090 0.0000 0.5878
vn -1.0000 0.0000 0.0000
vn 0.0000 1.0000 0.0000
vn -0.8090 0.0000 -0.5878
vn -0.3090 0.0000 -0.9511
vn 0.0000 -1.0000 0.0000
usemtl Table
s off
f 1/1/1 2/2/1 4/3/1 3/4/1
f 3/5/2 4/6/2 6/7/2 5/8/2
f 5/9/3 6/10/3 8/11/3 7/12/3
f 7/13/4 8/14/4 10/15/4 9/16/4
f 9/17/5 10/18/5 12/19/5 11/20/5
f 11/21/6 12/22/6 14/23/6 13/24/6
f 13/25/7 14/26/7 16/27/7 15/28/7
f 15/29/8 16/30/8 18/31/8 17/32/8
f 4/33/9 2/34/9 20/35/9 18/36/9 16/37/9 14/38/9 12/39/9 10/40/9 8/41/9 6/42/9
f 17/43/10 18/44/10 20/45/10 19/46/10
f 19/47/11 20/48/11 2/49/11 1/50/11
f 1/51/12 3/52/12 5/53/12 7/54/12 9/55/12 11/56/12 13/57/12 15/58/12 17/59/12 19/60/12
